<mxfile host="app.diagrams.net" modified="2021-02-26T09:45:46.105Z" agent="5.0 (Macintosh; Intel Mac OS X 10_15_4) AppleWebKit/537.36 (KHTML, like Gecko) Chrome/88.0.4324.192 Safari/537.36" etag="i_rbTeW49hRKRemTrLBx" version="14.2.9" type="github">
  <diagram id="hCzyXND7G4SYAQwvudRG" name="Page-1">
    <mxGraphModel dx="1186" dy="647" grid="1" gridSize="10" guides="1" tooltips="1" connect="1" arrows="1" fold="1" page="1" pageScale="1" pageWidth="827" pageHeight="1169" math="0" shadow="0">
      <root>
        <mxCell id="0" />
        <mxCell id="1" parent="0" />
        <mxCell id="lJWHU8eoPAWrbRAgJh-0-1" value="" style="shape=ext;double=1;rounded=1;whiteSpace=wrap;html=1;" vertex="1" parent="1">
          <mxGeometry x="60" y="200" width="270" height="150" as="geometry" />
        </mxCell>
        <mxCell id="lJWHU8eoPAWrbRAgJh-0-4" value="" style="shape=ext;double=1;rounded=1;whiteSpace=wrap;html=1;" vertex="1" parent="1">
          <mxGeometry x="400" y="150" width="280" height="160" as="geometry" />
        </mxCell>
        <mxCell id="lJWHU8eoPAWrbRAgJh-0-7" value="" style="shape=ext;double=1;rounded=1;whiteSpace=wrap;html=1;" vertex="1" parent="1">
          <mxGeometry x="430" y="180" width="280" height="160" as="geometry" />
        </mxCell>
        <mxCell id="lJWHU8eoPAWrbRAgJh-0-8" value="" style="shape=ext;double=1;rounded=1;whiteSpace=wrap;html=1;" vertex="1" parent="1">
          <mxGeometry x="460" y="210" width="280" height="160" as="geometry" />
        </mxCell>
        <mxCell id="lJWHU8eoPAWrbRAgJh-0-9" value="" style="shape=ext;double=1;rounded=0;whiteSpace=wrap;html=1;" vertex="1" parent="1">
          <mxGeometry x="142.5" y="210" width="120" height="130" as="geometry" />
        </mxCell>
        <mxCell id="lJWHU8eoPAWrbRAgJh-0-6" value="" style="shape=image;verticalLabelPosition=bottom;labelBackgroundColor=#ffffff;verticalAlign=top;aspect=fixed;imageAspect=0;image=https://cdn.ait.in.ua/wp-content/uploads/2019/06/Redirekt-s-poddomena-na-veb-katalog-Nginx.png;" vertex="1" parent="1">
          <mxGeometry x="150" y="247.5" width="101.06" height="55" as="geometry" />
        </mxCell>
        <mxCell id="lJWHU8eoPAWrbRAgJh-0-10" value="" style="shape=image;verticalLabelPosition=bottom;labelBackgroundColor=#ffffff;verticalAlign=top;aspect=fixed;imageAspect=0;image=https://habrastorage.org/getpro/habr/post_images/792/138/92e/79213892e85d57177c0ba9864dd75cc6.png;" vertex="1" parent="1">
          <mxGeometry x="147.38" y="215" width="36.26" height="30" as="geometry" />
        </mxCell>
        <mxCell id="lJWHU8eoPAWrbRAgJh-0-11" value="" style="shape=ext;double=1;rounded=0;whiteSpace=wrap;html=1;" vertex="1" parent="1">
          <mxGeometry x="490" y="235" width="100" height="130" as="geometry" />
        </mxCell>
        <mxCell id="lJWHU8eoPAWrbRAgJh-0-12" value="" style="shape=ext;double=1;rounded=0;whiteSpace=wrap;html=1;" vertex="1" parent="1">
          <mxGeometry x="610" y="235" width="100" height="130" as="geometry" />
        </mxCell>
        <mxCell id="lJWHU8eoPAWrbRAgJh-0-13" value="" style="shape=image;verticalLabelPosition=bottom;labelBackgroundColor=#ffffff;verticalAlign=top;aspect=fixed;imageAspect=0;image=https://habrastorage.org/getpro/habr/post_images/792/138/92e/79213892e85d57177c0ba9864dd75cc6.png;" vertex="1" parent="1">
          <mxGeometry x="490" y="235" width="36.26" height="30" as="geometry" />
        </mxCell>
        <mxCell id="lJWHU8eoPAWrbRAgJh-0-14" value="" style="shape=image;verticalLabelPosition=bottom;labelBackgroundColor=#ffffff;verticalAlign=top;aspect=fixed;imageAspect=0;image=https://habrastorage.org/getpro/habr/post_images/792/138/92e/79213892e85d57177c0ba9864dd75cc6.png;" vertex="1" parent="1">
          <mxGeometry x="610" y="235" width="36.26" height="30" as="geometry" />
        </mxCell>
        <mxCell id="lJWHU8eoPAWrbRAgJh-0-15" value="" style="shape=image;verticalLabelPosition=bottom;labelBackgroundColor=#ffffff;verticalAlign=top;aspect=fixed;imageAspect=0;image=https://miro.medium.com/max/3152/1*Ifpd_HtDiK9u6h68SZgNuA.png;" vertex="1" parent="1">
          <mxGeometry x="501.09000000000003" y="280" width="77.82" height="44" as="geometry" />
        </mxCell>
        <mxCell id="lJWHU8eoPAWrbRAgJh-0-16" value="" style="shape=image;verticalLabelPosition=bottom;labelBackgroundColor=#ffffff;verticalAlign=top;aspect=fixed;imageAspect=0;image=https://upload.wikimedia.org/wikipedia/commons/2/29/Postgresql_elephant.svg;" vertex="1" parent="1">
          <mxGeometry x="630.9200000000001" y="280" width="58.16" height="60" as="geometry" />
        </mxCell>
        <mxCell id="lJWHU8eoPAWrbRAgJh-0-18" value="" style="shape=flexArrow;endArrow=classic;html=1;" edge="1" parent="1">
          <mxGeometry width="50" height="50" relative="1" as="geometry">
            <mxPoint x="30" y="270" as="sourcePoint" />
            <mxPoint x="142.5" y="270" as="targetPoint" />
          </mxGeometry>
        </mxCell>
        <mxCell id="lJWHU8eoPAWrbRAgJh-0-19" value="Http" style="text;html=1;strokeColor=none;fillColor=none;align=center;verticalAlign=middle;whiteSpace=wrap;rounded=0;" vertex="1" parent="1">
          <mxGeometry x="60" y="235" width="67.5" height="40" as="geometry" />
        </mxCell>
        <mxCell id="lJWHU8eoPAWrbRAgJh-0-20" value="" style="endArrow=classic;html=1;exitX=1;exitY=0.5;exitDx=0;exitDy=0;entryX=-0.004;entryY=0.413;entryDx=0;entryDy=0;entryPerimeter=0;" edge="1" parent="1" source="lJWHU8eoPAWrbRAgJh-0-9" target="lJWHU8eoPAWrbRAgJh-0-4">
          <mxGeometry width="50" height="50" relative="1" as="geometry">
            <mxPoint x="364" y="280" as="sourcePoint" />
            <mxPoint x="414" y="230" as="targetPoint" />
          </mxGeometry>
        </mxCell>
        <mxCell id="lJWHU8eoPAWrbRAgJh-0-21" value="" style="endArrow=classic;html=1;exitX=1;exitY=0.5;exitDx=0;exitDy=0;" edge="1" parent="1" source="lJWHU8eoPAWrbRAgJh-0-9" target="lJWHU8eoPAWrbRAgJh-0-7">
          <mxGeometry width="50" height="50" relative="1" as="geometry">
            <mxPoint x="272.5" y="285" as="sourcePoint" />
            <mxPoint x="424" y="240" as="targetPoint" />
          </mxGeometry>
        </mxCell>
        <mxCell id="lJWHU8eoPAWrbRAgJh-0-22" value="" style="endArrow=classic;html=1;exitX=1;exitY=0.5;exitDx=0;exitDy=0;entryX=0.01;entryY=0.554;entryDx=0;entryDy=0;entryPerimeter=0;" edge="1" parent="1" source="lJWHU8eoPAWrbRAgJh-0-9" target="lJWHU8eoPAWrbRAgJh-0-11">
          <mxGeometry width="50" height="50" relative="1" as="geometry">
            <mxPoint x="390" y="360" as="sourcePoint" />
            <mxPoint x="440" y="310" as="targetPoint" />
          </mxGeometry>
        </mxCell>
        <mxCell id="lJWHU8eoPAWrbRAgJh-0-24" value="" style="endArrow=classic;html=1;entryX=0;entryY=0.5;entryDx=0;entryDy=0;exitX=1;exitY=0.5;exitDx=0;exitDy=0;" edge="1" parent="1" source="lJWHU8eoPAWrbRAgJh-0-11" target="lJWHU8eoPAWrbRAgJh-0-12">
          <mxGeometry width="50" height="50" relative="1" as="geometry">
            <mxPoint x="390" y="360" as="sourcePoint" />
            <mxPoint x="440" y="310" as="targetPoint" />
          </mxGeometry>
        </mxCell>
        <mxCell id="lJWHU8eoPAWrbRAgJh-0-25" value="VM1" style="text;html=1;strokeColor=none;fillColor=none;align=center;verticalAlign=middle;whiteSpace=wrap;rounded=0;" vertex="1" parent="1">
          <mxGeometry x="73.75" y="200" width="40" height="20" as="geometry" />
        </mxCell>
        <mxCell id="lJWHU8eoPAWrbRAgJh-0-27" value="VM2" style="text;html=1;strokeColor=none;fillColor=none;align=center;verticalAlign=middle;whiteSpace=wrap;rounded=0;" vertex="1" parent="1">
          <mxGeometry x="414" y="160" width="40" height="20" as="geometry" />
        </mxCell>
        <mxCell id="lJWHU8eoPAWrbRAgJh-0-28" value="VM3" style="text;html=1;strokeColor=none;fillColor=none;align=center;verticalAlign=middle;whiteSpace=wrap;rounded=0;" vertex="1" parent="1">
          <mxGeometry x="440" y="190" width="40" height="20" as="geometry" />
        </mxCell>
        <mxCell id="lJWHU8eoPAWrbRAgJh-0-29" value="VM4" style="text;html=1;strokeColor=none;fillColor=none;align=center;verticalAlign=middle;whiteSpace=wrap;rounded=0;" vertex="1" parent="1">
          <mxGeometry x="470" y="215" width="40" height="20" as="geometry" />
        </mxCell>
      </root>
    </mxGraphModel>
  </diagram>
</mxfile>
